<?xml version="1.0" encoding="UTF-8"?>
<svg xmlns="http://www.w3.org/2000/svg" xmlns:xlink="http://www.w3.org/1999/xlink" width="128px" height="128px" viewBox="0 0 128 128" version="1.1">
<g id="surface1">
<path style=" stroke:none;fill-rule:nonzero;fill:rgb(0%,0%,0%);fill-opacity:1;" d="M 52 14 C 52 10.6875 49.3125 8 46 8 L 26 8 C 16.058594 8 8 16.058594 8 26 L 8 102 C 8 111.941406 16.058594 120 26 120 L 46 120 C 49.3125 120 52 117.3125 52 114 C 52 110.6875 49.3125 108 46 108 L 26 108 C 22.6875 108 20 105.3125 20 102 L 20 26 C 20 22.6875 22.6875 20 26 20 L 46 20 C 49.3125 20 52 17.3125 52 14 Z M 52 14 "/>
<path style=" stroke:none;fill-rule:nonzero;fill:rgb(0%,0%,0%);fill-opacity:1;" d="M 79.761719 29.761719 C 82.101562 27.421875 85.898438 27.421875 88.238281 29.761719 L 116.238281 57.761719 C 118.578125 60.101562 118.578125 63.898438 116.238281 66.238281 L 88.238281 94.238281 C 86.746094 95.84375 84.492188 96.507812 82.367188 95.964844 C 80.238281 95.421875 78.578125 93.761719 78.035156 91.632812 C 77.492188 89.507812 78.15625 87.253906 79.761719 85.761719 L 97.519531 68 L 48 68 C 44.6875 68 42 65.3125 42 62 C 42 58.6875 44.6875 56 48 56 L 97.519531 56 L 79.761719 38.238281 C 77.421875 35.898438 77.421875 32.101562 79.761719 29.761719 Z M 79.761719 29.761719 "/>
</g>
</svg>
