<?xml version="1.0" encoding="UTF-8"?>
<svg xmlns="http://www.w3.org/2000/svg" xmlns:xlink="http://www.w3.org/1999/xlink" width="128px" height="128px" viewBox="0 0 128 128" version="1.1">
<g id="surface1">
<path style=" stroke:none;fill-rule:evenodd;fill:rgb(5.882353%,5.882353%,5.882353%);fill-opacity:1;" d="M 10.667969 5.332031 C 7.722656 5.332031 5.332031 7.722656 5.332031 10.667969 C 5.332031 13.613281 7.722656 16 10.667969 16 L 17.167969 16 L 36.179688 92.035156 C 30.574219 94.527344 26.667969 100.140625 26.667969 106.667969 C 26.667969 115.503906 33.832031 122.667969 42.667969 122.667969 C 51.503906 122.667969 58.667969 115.503906 58.667969 106.667969 C 58.667969 104.796875 58.34375 103 57.757812 101.332031 L 80.910156 101.332031 C 80.320312 103 80 104.796875 80 106.667969 C 80 115.503906 87.164062 122.667969 96 122.667969 C 104.835938 122.667969 112 115.503906 112 106.667969 C 112 97.828125 104.835938 90.667969 96 90.667969 L 46.832031 90.667969 L 44.164062 80 L 96 80 C 107.007812 80 113.609375 73.042969 117.273438 65.363281 C 120.851562 57.859375 122.097656 48.890625 122.535156 42.367188 C 123.136719 33.28125 115.628906 26.667969 107.3125 26.667969 L 30.832031 26.667969 L 27.515625 13.414062 C 26.332031 8.664062 22.0625 5.332031 17.167969 5.332031 Z M 96 69.332031 L 41.496094 69.332031 L 33.496094 37.332031 L 107.3125 37.332031 C 110.261719 37.332031 112.035156 39.503906 111.890625 41.65625 C 111.484375 47.746094 110.351562 55.101562 107.644531 60.773438 C 105.023438 66.265625 101.441406 69.332031 96 69.332031 Z M 96 111.96875 C 93.074219 111.96875 90.699219 109.59375 90.699219 106.667969 C 90.699219 103.738281 93.074219 101.367188 96 101.367188 C 98.925781 101.367188 101.300781 103.738281 101.300781 106.667969 C 101.300781 109.59375 98.925781 111.96875 96 111.96875 Z M 37.367188 106.667969 C 37.367188 109.59375 39.738281 111.96875 42.667969 111.96875 C 45.59375 111.96875 47.96875 109.59375 47.96875 106.667969 C 47.96875 103.738281 45.59375 101.367188 42.667969 101.367188 C 39.738281 101.367188 37.367188 103.738281 37.367188 106.667969 Z M 37.367188 106.667969 "/>
</g>
</svg>
